<?xml version="1.0" encoding="utf-8" ?><svg xmlns="http://www.w3.org/2000/svg" xmlns:xlink="http://www.w3.org/1999/xlink" width="500" height="500" viewBox="0 0 500 500"><path fill="#FC0000" d="M202.858 165.977C207.307 164.98 211.647 163.713 216.139 162.762C221.676 161.637 227.274 160.841 232.905 160.38C252.407 158.632 272.653 160.906 291.559 165.605C306.614 169.346 324.084 174.973 328.381 191.916C330.468 200.143 326.281 208.161 318.63 211.615L316.175 212.377C310.968 213.698 306.928 213.512 301.653 212.385C295.674 211.107 289.848 207.928 284.071 205.994C274.323 202.731 264.31 199.575 254.323 197.151C250.339 196.184 243.805 194.4 239.895 193.895C233.445 192.771 222.994 191.399 216.551 191.26C206.248 190.159 188.813 191.968 178.803 194.098C154.875 199.192 132.245 211.298 113.039 226.204C111.773 227.187 106.377 232.013 105.145 231.922C105.323 231.533 110.615 226.227 111.451 225.34C130.464 205.166 152.42 187.389 177.636 175.567C183.125 172.993 188.871 170.839 194.5 168.579L202.858 165.977Z"/><path fill="#FD5957" d="M156.049 132.667C173.011 122.127 201.232 108.698 221.765 112.02C230.253 113.393 239.44 123.379 236.62 132.452C232.451 145.87 215.142 147.365 203.661 150.259C195.222 152.387 185.983 154.328 178.098 157.694C176.505 158.254 174.907 158.801 173.304 159.335C144.864 168.984 120.389 187.723 103.655 212.661C97.0916 222.535 93.0338 231.463 88.5158 242.442C86.1707 248.775 84.9514 252.115 83.2358 258.72C83.1018 254.511 84.9964 245.767 86.014 241.441C86.1976 238.923 88.6393 230.679 89.3398 228.122C92.9522 214.934 97.8159 202.097 103.997 189.895C105.947 186.047 108.671 181.766 110.904 177.966L112.269 175.723C121.213 163.327 126.468 156.802 137.555 146.597C143.279 141.396 149.47 136.733 156.049 132.667Z"/><path fill="#B83932" d="M86.014 241.441C86.479 244.418 84.8749 247.313 85.0048 249.468C86.4743 247.426 87.1331 243.366 88.5158 242.442C86.1707 248.775 84.9514 252.115 83.2358 258.72C83.1018 254.511 84.9964 245.767 86.014 241.441Z"/><path fill="#FD5957" d="M349.798 227.352C354.304 226.825 361.047 227.295 365.227 229.055C371.14 231.591 375.807 236.367 378.206 242.337C379.658 245.926 380.427 249.52 380.943 253.401C383.596 273.345 375.927 296.631 358.723 308.096C356.586 309.52 354.06 310.523 351.703 311.458C347.513 312.749 325.067 315.082 322.313 313.115C322.065 311.675 322.009 310.202 322.019 308.743C322.062 302.436 324.996 234.316 326.311 232.832C328.361 230.519 345.686 227.68 349.798 227.352ZM361.92 264.99L361.982 264.707C361.592 263.103 361.614 260.921 361.377 259.165C361.017 256.498 360.471 254.163 359.812 251.559C358.563 248.643 357.89 248.055 354.886 247.277C352.255 247.118 346.124 247.646 344.09 249.337C342.804 252.772 343.813 256.854 343.515 260.319C342.968 266.685 343.015 274.724 341.998 280.88C340.744 288.226 340.86 285.089 342.08 292.825C345.692 291.627 347.179 291.128 350.512 289.226C356.089 285.429 358.768 277.121 360.229 270.84C360.561 269.414 361.257 266.065 361.92 264.99Z"/><path fill="#FD7373" d="M371.636 273.115C372.752 273.122 372.668 272.956 373.511 273.431C373.552 274.229 373.218 274.503 372.634 275.243C372.247 276.121 372.049 276.216 371.335 276.83C370.595 277.651 370.891 277.568 369.99 277.765L369.595 277.442C369.102 276.217 369.176 275.202 369.051 273.866C369.472 273.118 369.179 273.451 370.174 273.041C370.72 273.105 371.109 273.205 371.636 273.115Z"/><path fill="#FD9696" d="M369.051 273.866C369.472 273.118 369.179 273.451 370.174 273.041C370.715 274.447 370.761 275.707 371.335 276.83C370.595 277.651 370.891 277.568 369.99 277.765L369.595 277.442C369.102 276.217 369.176 275.202 369.051 273.866Z"/><path fill="#FD9696" d="M371.636 273.115C372.752 273.122 372.668 272.956 373.511 273.431C373.552 274.229 373.218 274.503 372.634 275.243C371.909 274.487 371.853 274.088 371.636 273.115Z"/><path fill="#FD9696" d="M328.252 249.341C328.509 249.547 329.009 249.806 328.919 250.123C328.261 252.435 328.726 259.402 327.576 260.991L327.505 260.91C325.961 259.144 327.208 251.226 328.252 249.341Z"/><path fill="#FD7373" d="M366.636 276.95C366.729 276.502 367.15 276.201 367.604 276.257C368.058 276.314 368.392 276.709 368.372 277.166C368.353 277.623 367.985 277.988 367.528 278.005C366.869 277.939 366.84 278.022 366.207 278.277C365.782 279.687 368.202 280.028 366.887 281.542L366.419 281.559C365.241 280.557 364.225 279.652 364.419 278.01C364.881 277.366 365.83 277.202 366.636 276.95Z"/><path fill="#FD9696" d="M366.636 276.95C366.729 276.502 367.15 276.201 367.604 276.257C368.058 276.314 368.392 276.709 368.372 277.166C368.353 277.623 367.985 277.988 367.528 278.005C367.259 278.016 366.999 277.901 366.825 277.695C366.651 277.489 366.581 277.214 366.636 276.95Z"/><path fill="#FD7373" d="M357.217 228.613C357.564 228.656 358.063 228.701 358.367 228.85C360.105 229.704 358.99 233.55 358.482 234.662L357.648 234.541C357.22 233.958 357.239 233.815 357.374 233.031C357.651 231.426 357.37 230.178 357.217 228.613Z"/><path fill="#FD9696" d="M364.929 252.908C365.975 252.734 366.537 252.537 367.529 252.805C368.297 253.489 368.122 253.091 368.294 253.921L367.908 254.446C367.19 254.828 366.676 254.627 365.851 254.487C365.787 254.485 365.722 254.483 365.658 254.48L365.336 254.463C364.164 254.404 364.003 254.493 363.05 253.881L362.997 253.509C363.641 252.93 364.057 252.991 364.929 252.908Z"/><path fill="#FD9696" d="M361.982 264.707C362.441 263.706 362.7 262.932 363.463 262.145C365.075 261.755 365.595 263.872 366.139 265.148C364.403 264.946 363.661 264.814 361.92 264.99L361.982 264.707Z"/><path fill="#FD7373" d="M369.051 273.866C368.609 273.774 366.861 273.119 366.532 272.785C366.679 271.908 367.747 270.094 368.912 270.521C369.779 271.696 369.575 271.883 370.174 273.041C369.179 273.451 369.472 273.118 369.051 273.866Z"/><path fill="#FDC5C4" d="M327.887 302.053L328.516 302.323C329.387 303.517 328.653 305.007 327.668 305.871C327.053 304.99 326.631 304.419 326.601 303.373C327.04 302.394 326.854 302.719 327.887 302.053Z"/><path fill="#E15252" d="M354.886 247.277C358.61 246.434 359.799 247.663 359.812 251.559C358.563 248.643 357.89 248.055 354.886 247.277Z"/><path fill="#FD7373" d="M326.479 306.625C327.401 306.886 327.354 306.885 328.03 307.483C328.499 308.44 328.413 308.661 328.37 309.773C327.125 309.787 326.876 309.904 326.205 308.816C326.124 307.78 326.199 307.655 326.479 306.625Z"/><path fill="#FD7373" d="M366.496 266.421C367.138 267.046 367.29 267.128 367.612 267.988C367.504 268.904 367.058 269.187 366.397 269.855L366.043 270.048L365.68 269.823C365.547 268.61 365.857 267.45 366.496 266.421Z"/><path fill="#FDC5C4" d="M369.138 245.462C370.057 245.493 370.301 245.438 371.117 245.891C371.509 246.748 371.458 246.295 371.114 247.309C370.214 247.336 369.48 247.467 368.759 246.985C368.593 246.109 368.608 246.431 369.138 245.462Z"/><path fill="#FD7373" d="M367.083 258.197C367.63 258.295 367.427 258.223 367.889 258.571C367.956 259.446 367.199 260.397 366.709 261.199C366.002 260.781 366 260.843 365.671 260.104C365.821 259.272 366.454 258.825 367.083 258.197Z"/><path fill="#FD7373" d="M372.47 257.422C373.201 257.783 372.92 257.53 373.366 258.187C373.124 259.118 373.204 258.826 372.457 259.603C371.695 259.247 371.685 259.295 371.136 258.68C371.398 257.89 371.566 258.013 372.47 257.422Z"/><path fill="#FD9696" d="M350.346 237.084C351.17 237.194 351.219 237.133 351.833 237.718C351.957 238.678 351.982 238.191 351.551 239.214C350.751 238.884 350.624 238.846 349.872 238.353L349.796 237.808L350.346 237.084Z"/><path fill="#FD7373" d="M342.626 232.933C342.979 232.561 343.562 232.53 343.953 232.862C344.344 233.194 344.408 233.774 344.098 234.183C343.882 234.469 343.525 234.611 343.171 234.554C342.817 234.496 342.525 234.247 342.41 233.908C342.296 233.568 342.379 233.193 342.626 232.933Z"/><path fill="#FD7373" d="M367.818 264.341C369.133 264.579 369.72 265.229 369.665 266.549C369.059 266.718 369.104 266.717 368.509 266.508C367.938 265.894 367.952 265.202 367.818 264.341Z"/><path fill="#FD5957" d="M153.282 229.105C155.548 228.304 169.099 228.069 171.564 228.994C173.018 230.513 170.957 249.01 170.725 252.271C170.212 260.293 169.873 268.326 169.708 276.362C169.474 284.308 169.719 292.117 169.66 300.054C169.632 303.859 169.688 308.547 169.289 312.263L169.204 313.086C164.45 313.401 154.073 314.044 149.682 312.936C145.462 306.482 134.984 270.793 131.979 268.346C131.014 269.147 131.445 275.137 131.398 276.704C131.136 283.51 130.951 290.317 130.842 297.127C130.791 300.418 131.032 310.698 129.766 312.984C126.944 314.169 113.032 313.762 109.711 313.125C108.856 308.398 109.592 303.268 109.841 298.493L111.434 271.783C112.306 257.972 112.976 243.931 115.131 230.266C115.468 228.133 122.318 228.547 124.027 228.56C128.726 228.509 135.572 228.65 138.202 233.507C143.303 242.928 146.184 254.075 150.642 263.943C153.058 252.984 151.345 239.264 153.282 229.105Z"/><path fill="#FD7373" d="M145.737 288.193C145.555 287.234 145.438 287.613 145.851 286.958C147.113 286.521 149.054 287.937 150.088 288.646L150.401 288.811C151.077 288.759 151.08 288.741 151.737 288.878L152.069 289.392C151.521 289.96 151.067 289.868 150.117 290.064C149.247 291.295 146.051 293.015 145.022 294.572C144.777 294.941 144.745 294.844 144.251 294.969C143.81 294.395 143.995 294.699 143.926 293.824C144.716 292.121 144.264 293.872 145.475 292.575C145.305 291.945 144.011 291.108 143.313 290.116L143.494 289.815C144.796 289.785 145.534 290.173 146.733 289.906C147.612 289.71 148.437 289.702 149.335 289.674L149.368 289.488C148.018 288.867 146.833 289.769 145.737 288.193Z"/><path fill="#FD9696" d="M145.737 288.193C145.555 287.234 145.438 287.613 145.851 286.958C147.113 286.521 149.054 287.937 150.088 288.646C148.704 289.472 147.179 288.669 145.737 288.193Z"/><path fill="#FD7373" d="M140.779 264.189C141.281 264.434 141.047 264.277 141.379 264.887C141.337 266.847 141.896 271.76 141.609 272.639C141.015 273.264 140.931 273.203 140.095 273.369C139.547 271.213 138.692 268.789 137.975 266.665C138.753 265.824 139.884 264.939 140.779 264.189Z"/><path fill="#FD7373" d="M150.609 297.457C150.017 298.297 148.441 299.945 147.519 300.308C146.519 300.012 146.686 299.866 145.884 298.847C145.713 297.089 147.209 298.024 148.323 296.648C148.37 295.418 147.902 294.429 148.343 293.36C148.978 292.748 148.928 292.786 149.8 292.632L150.161 292.911C150.237 294.01 149.57 295.334 149.139 296.395L149.339 296.779C149.955 296.649 150.062 296.478 150.607 296.101C150.628 296.566 150.679 297.004 150.609 297.457Z"/><path fill="#FD7373" d="M125.736 281.644C126.114 284.166 128.934 282.698 125.205 286.82C124.803 287.264 125.738 288.907 124.275 290.113C122.205 289.396 125.653 285.058 123.671 283.488C123.384 283.261 123.236 282.459 123.203 282.067C124.152 281.963 124.798 281.837 125.736 281.644Z"/><path fill="#FD9696" d="M150.607 296.101C151.395 295.169 151.199 295.11 152.182 294.765C153.362 295.027 154.19 295.445 154.026 296.781C153.135 297.479 152.245 298.019 151.187 298.436C150.704 297.965 150.874 298.147 150.609 297.457C150.679 297.004 150.628 296.566 150.607 296.101Z"/><path fill="#FD9696" d="M128.634 252.536C129.701 252.464 130.527 252.374 131.434 252.921L131.44 253.327C130.762 253.963 129.641 253.975 128.671 254.115C128.485 254.164 128.299 254.21 128.112 254.254C127.186 254.471 126.804 254.554 126.044 254.084L126.091 253.648C126.737 252.857 127.588 252.8 128.634 252.536Z"/><path fill="#FD7373" d="M123.203 282.067C122.291 281.673 120.921 280.229 121.166 279.112L121.701 279.006C123.042 279.394 124.677 280.725 125.736 281.644C124.798 281.837 124.152 281.963 123.203 282.067Z"/><path fill="#FD7373" d="M123.63 295.909C125.255 296.268 126.143 297.745 126.082 299.353C124.603 298.906 123.565 297.459 123.63 295.909Z"/><path fill="#E15252" d="M150.032 300.338L150.555 300.562C150.406 300.966 150.245 301.365 150.074 301.76C149.412 303.286 149.542 303.193 148.259 303.7C147.754 303.45 147.91 303.551 147.467 303.141L147.6 302.502C148.407 301.878 148.46 301.834 149.425 301.467L149.645 301.386L150.032 300.338Z"/><path fill="#FD5957" d="M252.696 313.334C252.386 311.25 252.349 307.262 252.476 305.093C253.449 288.393 254.603 272.385 255.807 255.632C256.512 246.64 256.411 237.262 257.779 228.369C258.051 226.608 275.494 226.759 277.211 227.496C277.779 228.199 277.934 229.039 277.919 229.955C277.758 239.74 276.456 249.616 276.094 259.4C279.964 259.804 288.246 259.878 291.937 258.966C292.436 258.843 293.211 258.613 293.509 258.16C295.277 255.47 293.796 231.101 296.006 228.205C296.525 227.525 297.508 227.365 298.307 227.253C301.065 226.868 314.241 226.535 315.753 227.971C316.28 228.471 316.437 229.293 316.485 229.985C316.685 232.885 315.94 239.137 315.761 242.358C314.999 256.062 314.277 269.717 313.987 283.444C313.785 292.944 314.105 302.553 313.444 312.03C308.396 312.797 300.703 312.527 295.402 312.511C293.552 312.453 293.398 312.339 291.649 311.756C291.231 309.082 291.16 304.427 291.47 301.74C291.5 297.866 291.812 294.009 291.973 290.138C292.147 285.968 292.155 281.594 292.582 277.442C288.824 277.791 278.43 278.421 275.892 281.216C274.254 283.019 276.069 309.14 273.979 312.749C273.677 313.271 272.656 313.409 272.126 313.489C268.331 314.059 264.32 313.436 260.492 313.749L258.641 313.685C256.538 313.642 254.795 313.519 252.696 313.334Z"/><path fill="#FD7373" d="M292.614 306.583C294.872 307.272 296.786 308.815 297.132 311.284L296.912 311.871C295.961 312.206 295.737 311.927 294.83 311.399C293.183 310.061 291.933 308.792 292.614 306.583Z"/><path fill="#E15252" d="M291.47 301.74C291.61 303.389 291.506 305.593 292.614 306.583C291.933 308.792 293.183 310.061 294.83 311.399L295.402 312.511C293.552 312.453 293.398 312.339 291.649 311.756C291.231 309.082 291.16 304.427 291.47 301.74Z"/><path fill="#FD7373" d="M301.945 296.568C302.628 295.602 302.439 294.683 303.148 294.117C305.067 294.659 307.051 295.193 308.952 295.779L309.008 296.332C307.859 297.418 306.128 296.603 304.429 296.74C304.742 298.124 306.361 298.052 307.303 299.638L307.305 300.206C305.776 301.309 304.112 298.472 301.552 298.52L300.963 298.125C301.257 297.356 301.439 297.194 301.945 296.568Z"/><path fill="#FD7373" d="M303.911 297.398C304.056 296.854 303.903 297.087 304.429 296.74C304.742 298.124 306.361 298.052 307.303 299.638L307.305 300.206C305.776 301.309 304.112 298.472 301.552 298.52L300.963 298.125C302.481 298.317 302.788 298.468 303.911 297.398Z"/><path fill="#FD9696" d="M264.997 230.794C266.577 230.815 274.27 230.533 274.99 231.538L274.69 231.917C272.306 232.053 266.828 233.182 264.952 232.159C264.623 231.372 264.695 231.804 264.997 230.794Z"/><path fill="#FDC5C4" d="M286.431 265.765C289.237 265.578 290.8 265.479 291.125 268.628C289.238 268.52 286.814 267.861 286.431 265.765Z"/><path fill="#FD7373" d="M311.884 274.837L312.75 274.977C314.065 276.067 313.815 277.041 313.223 278.521C312.098 278.075 311.522 277.922 311.18 276.657C311.287 275.62 311.263 275.672 311.884 274.837Z"/><path fill="#FD7373" d="M294.22 270.212C294.869 270.652 294.948 270.758 295.066 271.439C294.311 272.422 292.201 272.364 290.74 272.602C290.351 271.789 290.275 271.558 290.913 270.988C292.909 271.179 292.775 271.487 294.22 270.212Z"/><path fill="#FD7373" d="M269.159 292.155C270.285 292.228 271.184 292.116 271.809 293.123L271.629 293.79C270.575 294.286 270.707 294.421 269.712 294.336C269.149 293.734 269.228 293.024 269.159 292.155Z"/><path fill="#FD9696" d="M262.006 230.818C263.72 231.372 263.17 233.268 262.436 234.426C261.091 232.974 260.82 232.447 262.006 230.818Z"/><path fill="#FD7373" d="M264.804 297.958C265.593 298.067 266.23 298.055 266.839 298.534C266.938 299.315 266.881 299.094 266.305 299.954C265.421 299.847 264.775 299.898 264.167 299.296C264.189 298.501 264.204 298.73 264.804 297.958Z"/><path fill="#FD7373" d="M272.133 242.876C273.474 243.726 273.228 244.941 272.32 245.987C271.719 245.43 271.432 245.254 271.13 244.485C271.374 243.473 271.343 243.749 272.133 242.876Z"/><path fill="#FD9696" d="M299.126 266.848C299.24 266.837 299.957 266.928 300.096 266.943L300.292 267.283C299.479 267.954 299.526 267.756 298.311 267.956C297.482 267.805 297.347 267.941 296.931 267.445C297.656 266.891 298.21 266.939 299.126 266.848Z"/><path fill="#FD7373" d="M301.407 271.685C301.822 271.39 302.394 271.469 302.715 271.864C303.035 272.259 302.993 272.835 302.62 273.18C302.356 273.424 301.978 273.501 301.639 273.379C301.301 273.258 301.058 272.958 301.01 272.602C300.961 272.246 301.114 271.893 301.407 271.685Z"/><path fill="#FD7373" d="M268.732 286.737C269.757 286.614 270.347 286.499 271.133 287.097L271.168 287.772C270.345 287.962 269.965 288.108 269.117 288.002C268.553 287.426 268.766 287.786 268.732 286.737Z"/><path fill="#FD9696" d="M266.376 294.776C267.16 294.932 267.198 294.878 267.835 295.329C267.563 295.985 267.487 295.837 266.667 296.26C265.564 296.017 265.932 296.305 265.345 295.614C265.671 294.89 265.441 295.224 266.376 294.776Z"/><path fill="#FD5957" d="M200.998 241.119C202.508 237.919 204.406 230.314 208.086 229.573C222.651 226.642 229.799 226.672 233.745 242.472C236.008 251.531 237.665 260.061 239.25 269.22L242.605 288.035C243.273 291.994 247.025 309.328 246.189 312.488C244.372 314.219 230.934 313.672 227.473 313.592C226.39 313.566 225.306 313.525 224.224 313.471C223.295 309.227 222.561 300.867 222.429 296.475C215.832 297.562 209.393 298.86 202.947 299.94C202.191 302.671 200.734 310.522 199.737 312.377C196.152 312.97 182.938 313.538 179.661 312.632C179.004 312.45 178.554 312.249 178.237 311.611C176.686 308.487 188.507 273.286 190.303 268.329C193.707 259.196 197.272 250.125 200.998 241.119ZM209.51 277.273L209.57 277.587C210.918 279.152 219.342 278.84 219.155 277.272C218.464 271.462 218.021 263.351 215.224 258.18C214.797 259.995 214.491 261.104 213.881 262.862C212.453 268.104 211.235 272.147 209.51 277.273ZM237.495 309.4L238.379 309.517C240.573 307.797 236.652 295.342 235.603 292.885C235.476 292.587 233.64 291.997 233.277 291.966C231.671 293.613 231.269 297.691 230.618 300.326C235.15 303.613 235.457 303.963 237.495 309.4ZM212.241 262.482L211.584 261.871C210.907 262.027 210.757 262.499 210.397 263.076C209.207 264.989 202.96 279.097 203.432 280.867C203.455 280.953 203.497 281.032 203.53 281.115C205.084 281.013 205.844 277.656 206.747 276.403C207.772 274.628 211.232 265.045 212.241 262.482Z"/><path fill="#E15252" d="M212.241 262.482C213.034 262.798 213.024 262.78 213.881 262.862C212.453 268.104 211.235 272.147 209.51 277.273C208.352 276.462 208.067 276.206 206.747 276.403C207.772 274.628 211.232 265.045 212.241 262.482Z"/><path fill="#FD9696" d="M223.743 276.693L223.961 276.468C226.368 273.943 224.566 273.505 224.599 270.905C226.624 269.872 229.001 275.224 227.013 276.848C226.007 277.042 225.284 277.125 224.262 277.23L223.743 276.693Z"/><path fill="#FD7373" d="M227.047 289.293C227.937 289.215 228.345 289.108 228.937 289.576L228.882 290.071C227.949 291.259 226.431 292.183 225.155 293.053C224.419 293.283 224.452 293.32 223.703 293.211L223.484 292.87C223.604 291.951 224.255 291.084 224.753 290.269C225.461 289.918 226.305 289.596 227.047 289.293Z"/><path fill="#FD7373" d="M221.008 238.635C221.816 237.783 222.321 236.873 223.222 236.712C224.757 238.469 223.849 239.058 226.482 239.263C226.899 239.557 227.043 240.108 226.824 240.568C226.605 241.028 226.086 241.264 225.595 241.125C225.105 240.986 224.785 240.514 224.839 240.007C223.582 239.543 222.281 239.105 221.008 238.635Z"/><path fill="#FD9696" d="M224.839 240.007C224.879 239.639 225.11 239.318 225.448 239.165C225.786 239.012 226.179 239.05 226.482 239.263C226.899 239.557 227.043 240.108 226.824 240.568C226.605 241.028 226.086 241.264 225.595 241.125C225.105 240.986 224.785 240.514 224.839 240.007Z"/><path fill="#F1D5C2" d="M231.018 273.515C231.392 273.634 231.315 273.666 231.635 274.012C231.544 274.99 231.686 276.473 231.53 277.057L230.871 277.348C229.632 276.642 228.831 276.052 229.105 274.58C229.606 273.838 230.146 273.79 231.018 273.515Z"/><path fill="#FDC5C4" d="M192.791 299.563C193.016 298.747 193.053 298.198 193.706 297.693L194.226 297.704C194.903 298.673 194.767 299.144 194.531 300.261C194.039 301.332 193.169 301.594 192.229 300.861C192.288 299.963 192.17 300.403 192.791 299.563Z"/><path fill="#FD9696" d="M192.791 299.563C193.016 298.747 193.053 298.198 193.706 297.693L194.226 297.704C194.903 298.673 194.767 299.144 194.531 300.261L194.45 299.874C193.867 299.438 193.686 299.594 192.791 299.563Z"/><path fill="#F1D5C2" d="M198.262 292.248C199.891 292.011 201.544 292.114 202.051 293.905C200.932 293.965 199.877 294.158 198.895 293.712C198.202 292.925 198.444 293.378 198.262 292.248Z"/><path fill="#FD9696" d="M226.226 280.177C227.729 280.155 229.764 280.413 229.547 282.292C229.019 282.542 229.053 282.56 228.477 282.546C227.4 281.976 226.963 281.173 226.226 280.177Z"/><path fill="#FD7373" d="M223.743 276.693L224.262 277.23L225.378 278.139C225.758 278.979 225.703 278.971 225.547 279.844L224.971 280C223.465 278.774 223.949 278.439 223.743 276.693Z"/><path fill="#FD7373" d="M227.627 246.213C227.931 246.201 228.003 246.282 228.323 246.406L228.559 247.015C228.424 247.985 228.348 248.024 227.727 248.828C226.753 248.476 226.796 248.667 226.293 247.978C226.407 247.211 227.033 246.788 227.627 246.213Z"/><path fill="#FD7373" d="M227.819 308.653C228.162 308.447 228.59 308.444 228.936 308.645C229.281 308.846 229.491 309.219 229.482 309.619C229.473 310.019 229.247 310.383 228.893 310.568C228.366 310.843 227.716 310.65 227.426 310.132C227.135 309.614 227.309 308.958 227.819 308.653Z"/><path fill="#FD7373" d="M201.322 273.55L201.872 273.867C202.553 274.959 202.801 275.388 202.001 276.468C201.348 276.343 201.379 276.38 200.909 275.918C200.674 275.124 201.052 274.384 201.322 273.55Z"/><path fill="#FD7373" d="M227.585 302.926C228.079 302.885 228.52 303.233 228.595 303.723C228.669 304.212 228.351 304.676 227.867 304.783C227.524 304.859 227.168 304.737 226.942 304.468C226.717 304.198 226.661 303.826 226.796 303.502C226.931 303.178 227.235 302.956 227.585 302.926Z"/><path fill="#FD5957" d="M427.077 228.374C429.903 228.147 433.245 228.492 435.607 230.122C441.957 234.504 444.06 249.002 445.578 256.463C447.6 267.859 449.924 279.29 451.85 290.695C452.444 294.214 456.26 310.967 454.98 312.893C452.515 314.036 435.66 313.699 432.533 313.145C432.002 310.272 431.482 299.656 431.48 296.623C427.514 296.983 421.28 297.825 417.479 298.795C415.688 299.306 413.354 299.644 411.482 299.969C410.872 302.873 409.924 312.415 406.825 312.71C403.428 313.033 389.567 313.578 386.955 312.308C385.599 309.818 389.243 299.694 390.002 296.875C395.54 276.299 403.144 256.59 411.468 237.002C413.909 231.259 414.128 229.226 421.121 228.882C423.04 228.754 425.096 228.436 427.077 228.374ZM423.063 278.484L428.288 277.904C426.896 274.019 426.411 260.138 424.2 258.877C423.076 261.875 418.721 274.9 418.635 277.589C419.595 278.889 421.565 278.553 423.063 278.484ZM447.182 309.493C448.244 308.718 448.1 307.762 447.859 306.523C446.956 301.867 445.926 297.309 444.2 292.908C443.061 292.154 441.338 290.763 440.178 290.602C442.134 294.176 438.906 297.528 440.17 300.83C440.501 301.696 443.317 302.863 444.056 303.857C445.387 305.647 445.582 308.091 447.182 309.493ZM413.126 280.634C415.951 276.51 417.748 271.598 419.425 266.945C419.822 265.845 421.203 263.225 421.201 262.285C420.71 261.843 420.46 261.913 419.783 261.857C418.294 264.285 411.947 278.726 412.49 280.839L412.87 280.879L413.126 280.634Z"/><path fill="#FD7373" d="M433.44 275.75C433.944 273.503 432.998 271.691 433.689 270.383L434.143 270.412C435.066 271.427 434.793 270.934 435.115 272.339C435.498 272.896 435.866 272.966 436.501 273.237L436.761 273.346C436.951 273.831 437.132 274.319 437.306 274.81L436.621 275.478C437.035 276.001 437.091 275.954 437.723 276.218C436.247 276.41 433.358 277.561 432.481 277.166C432.613 276.338 432.706 276.493 433.44 275.75Z"/><path fill="#FD9696" d="M433.44 275.75C434.717 275.441 435.133 275.979 436.621 275.478C437.035 276.001 437.091 275.954 437.723 276.218C436.247 276.41 433.358 277.561 432.481 277.166C432.613 276.338 432.706 276.493 433.44 275.75Z"/><path fill="#FDC5C4" d="M437.306 274.81C438.247 274.063 438.461 274.177 438.632 273.292C438.351 272.558 438.072 272.466 437.417 272.029C440.187 271.339 441.415 275.687 440.26 277.187C439.417 277.316 438.372 276.739 437.723 276.218C437.091 275.954 437.035 276.001 436.621 275.478L437.306 274.81Z"/><path fill="#FD7373" d="M433.157 240.476C432.253 240.084 430.945 239.696 430.514 238.898C430.501 237.801 430.333 237.961 430.83 237.195C432.419 237.094 433.294 238.748 434.518 239.481C435.361 240.053 435.421 239.89 435.716 240.661C434.894 241.378 434.022 240.872 433.157 240.476Z"/><path fill="#FD9696" d="M434.518 239.481C435.361 240.053 435.421 239.89 435.716 240.661C434.894 241.378 434.022 240.872 433.157 240.476C433.632 239.946 433.913 239.831 434.518 239.481Z"/><path fill="#FDC5C4" d="M402.54 297.593C403.4 298.094 403.546 298.734 403.52 299.657C403.008 300.687 402.68 300.74 401.609 301.329C401.293 301.284 401.215 301.216 400.914 301.086C400.854 300.095 401.953 298.586 402.54 297.593Z"/><path fill="#FD9696" d="M435.506 279.828C436.495 279.889 438.169 280.779 438.68 281.629L438.416 282.254C437.384 282.746 437.528 282.89 436.637 282.715C435.934 282.027 435.766 280.826 435.506 279.828Z"/><path fill="#F1D5C2" d="M407.517 291.936C408.754 291.901 408.962 291.932 409.926 292.549C410.535 293.558 410.443 293.05 410.425 294.075C409.184 294.083 408.473 294.235 407.513 293.61C407.227 292.95 407.37 292.645 407.517 291.936Z"/><path fill="#FD7373" d="M437.556 308.173C438.289 308.622 438.051 308.313 438.303 309.126C438.047 310.115 438.016 310.067 437.273 310.817C436.419 310.362 436.518 310.57 436.07 309.854C436.207 309.153 436.963 308.683 437.556 308.173Z"/><path fill="#FD9696" d="M433.897 285.299C434.948 285.576 434.532 285.315 435.254 286.002C435.481 286.77 435.227 287.199 434.96 287.968C434.273 287.75 434.32 287.727 433.813 287.195C433.533 286.32 433.641 286.17 433.897 285.299Z"/><path fill="#FD7373" d="M410.405 273.837C411.071 273.937 411.027 273.931 411.603 274.285C411.661 275.127 411.382 275.182 410.781 276.086L410.313 276.124L409.988 275.751C409.928 274.796 409.995 274.738 410.405 273.837Z"/><path fill="#FD7373" d="M407.154 301.358C407.829 301.417 407.783 301.419 408.371 301.769C408.43 302.664 408.479 302.204 407.875 303.162C407.223 303.075 407.249 303.083 406.656 302.8C406.496 302.041 406.572 302.259 407.154 301.358Z"/><path fill="#FD5957" d="M66.3467 174.25C70.6364 163.956 75.0194 156.069 81.382 146.56C89.2513 134.799 100.46 120.262 116.665 126.522C124.3 129.471 125.234 139.491 122.101 146.017C118.75 153.245 112.767 158.861 107.787 164.973C97.9668 176.813 89.5104 189.72 82.5774 203.452C81.1038 206.434 78.8847 211.127 77.9002 214.281L77.8247 214.44C75.8402 218.841 74.6143 223.826 73.4767 228.5C67.202 254.282 70.9774 280.984 79.8717 305.705C79.3965 305.028 78.9619 304.323 78.5702 303.594C63.3355 275.584 53.4441 238.882 57.7666 207.017C59.4685 194.471 61.3939 189.345 64.8446 177.803C65.4375 176.684 65.8827 175.435 66.3467 174.25Z"/><path fill="#FC0000" d="M267.62 327.317C277.943 326.034 278.771 335.008 273.996 341.695C271.674 344.947 269.079 346.051 265.308 346.7C256.72 347.43 254.117 341.899 257.417 334.63C259.485 330.075 262.756 327.978 267.62 327.317ZM265.253 344.606C267.467 342.653 270.579 333.289 269.817 330.591C268.995 329.842 268.539 329.952 267.355 329.992C265.196 332.087 261.503 341.661 263.538 344.134C264.372 344.536 264.331 344.525 265.253 344.606Z"/><path fill="#FC0000" d="M211.992 327.321C213.681 327.188 218.312 326.828 219.607 327.569C220.168 328.757 218.055 333.135 217.427 335.268C219.543 335.168 220.782 335.15 222.886 335.293C224.028 332.259 224.236 330.549 224.31 327.357C227.208 327.378 230.524 327.241 233.471 327.212C230.803 330.717 229.63 337.414 228.611 341.794C228.258 343.309 228.109 345.779 227.358 347.009C225.547 346.998 220.639 347.408 219.724 345.964C219.757 345.24 221.836 339.491 222.254 337.947C220.375 337.869 218.52 337.972 216.643 338.048C215.794 341.317 215.406 343.313 215.512 346.666C212.469 346.877 209.699 346.697 206.499 347.01C209.243 341.659 211.095 333.257 211.992 327.321Z"/><path fill="#FC0000" d="M311.064 327.136C313.889 326.898 318.205 326.81 320.414 328.77C321.387 329.618 321.941 330.847 321.934 332.137C321.926 333.963 320.891 335.88 319.543 337.061C316.559 339.677 313.048 339.534 309.411 339.449C308.699 342.305 308.518 343.139 308.841 346.039L308.562 346.55C307.153 347.27 301.608 346.99 299.634 347.035C301.635 342.036 304.677 332.893 304.621 327.608C306.768 327.177 308.879 327.193 311.064 327.136ZM312.589 336.955C315.276 334.96 317.148 330.569 312.549 329.428C311.574 331.47 310.136 334.631 310.564 336.857C311.236 337.469 311.714 337.238 312.589 336.955Z"/><path fill="#FC0000" d="M172.648 327.305C175.776 326.993 176.759 327.343 179.542 328.503C181.108 327.864 182.72 326.841 184.068 328.279C184.537 330.054 183.206 332.822 181.804 333.829C179.025 333.349 177.97 328.294 174.424 330.217C172.212 334.31 181.79 335.386 181.779 339.968C181.768 344.623 178.411 346.224 174.337 346.773C171.317 346.717 170.408 346.22 167.511 345.198C166.169 345.955 165.32 346.742 163.787 346.157C162.734 344.319 164.639 340.353 166.184 339.295C168.855 339.864 170.671 346.219 174.524 343.141C175.074 340.369 168.099 338.115 167.357 334.733C166.398 330.364 168.894 328.493 172.648 327.305Z"/><path fill="#FD9696" d="M17.151 239.726C16.3641 235.675 16.0648 232.181 15.6622 228.108C14.8712 220.107 14.2179 211.145 18.9606 204.141C21.3971 200.513 24.2932 197.749 28.7693 197.077C31.8258 196.618 35.4708 196.587 38.0052 198.633C44.5288 203.899 44.7 213.66 44.753 220.953C44.7661 224.593 44.8641 228.231 45.047 231.866C45.8951 249.497 47.7402 260.757 52.7293 277.558C54.7525 282.782 59.3231 293.94 62.6397 298.331C67.0929 305.842 71.5296 311.202 77.5746 317.422L79.4847 319.441C80.2148 320.199 80.9141 320.776 81.7098 321.457C82.4053 322.032 85.6393 324.766 86.1969 325.093C88.9596 327.369 98.8023 334.907 101.773 336.565L100.809 337.033C98.9342 336.275 97.1002 335.577 95.3234 334.603C90.5409 332.421 85.8329 329.826 81.1977 327.331C76.4107 324.305 70.5527 320.873 66.003 317.515C61.9448 314.519 56.5451 309.626 52.9003 306.226C48.9515 302.484 45.2525 298.488 41.8272 294.262C40.0929 291.771 38.1077 289.297 36.3213 286.779C35.0203 284.946 33.6869 282.689 32.4098 280.999C30.4151 277.148 28.1658 273.012 26.372 269.1C21.9763 259.513 19.4757 249.954 17.151 239.726Z"/><path fill="#FDC5C4" d="M0 300.248C3.74893 292.973 9.65918 288.947 17.7288 293.599C25.354 297.994 31.1826 307.558 37.6955 313.492C44.2315 319.773 49.8238 324.642 57.0055 329.942C65.938 336.305 76.9096 342.614 87.7075 344.929C96.5647 348.943 114.62 348.888 124.58 348.256C128.615 348 133.925 346.84 137.761 346.675C133.811 348.051 122.251 351.484 118.239 352.029C115.299 352.56 112.207 353.429 109.278 353.822C95.1327 355.723 81.0441 356.535 67.033 353.221C64.7115 352.672 62.06 351.992 59.7235 351.637L59.4978 351.605C39.3858 345.857 19.4253 333.099 5.85899 317.146C3.08804 313.888 2.16397 309.812 0 306.656L0 300.248Z"/><path fill="#B9878F" fill-opacity="0.98431373" d="M101.773 336.565C103.938 337.652 106.676 339.153 108.776 340.396C105.994 339.712 103.359 338.332 100.809 337.033L101.773 336.565Z"/></svg>